<?xml version="1.0" encoding="UTF-8"?>
<svg width="80px" height="80px" viewBox="0 0 80 80" version="1.1" xmlns="http://www.w3.org/2000/svg" xmlns:xlink="http://www.w3.org/1999/xlink">
    <!-- Generator: Sketch 48.2 (47327) - http://www.bohemiancoding.com/sketch -->
    <title>Empty/Images/Small/es_templates</title>
    <desc>Created with Sketch.</desc>
    <defs></defs>
    <g id="symbols" stroke="none" stroke-width="1" fill="none" fill-rule="evenodd">
        <g id="Empty/Images/Small/es_templates" fill="#52555A" fill-rule="nonzero">
            <path d="M11.2,8 C9.4416672,8 8,9.4416672 8,11.2 L8,45.3333333 C8,47.0916672 9.4416672,48.5333333 11.2,48.5333333 L25.0666667,48.5333333 L25.0666667,68.8 C25.0666667,70.5583339 26.5083339,72 28.2666667,72 L68.8,72 C70.5583339,72 72,70.5583339 72,68.8 L72,34.6666667 C72,32.9083339 70.5583339,31.4666667 68.8,31.4666667 L54.9333333,31.4666667 L54.9333333,11.2 C54.9333333,9.4416672 53.4916672,8 51.7333333,8 L11.2,8 Z M11.2,10.1333333 L51.7333333,10.1333333 C52.3208331,10.1333333 52.8,10.6125003 52.8,11.2 L52.8,31.4666667 L48.5333333,31.4666667 L48.5333333,26.1333333 C48.5333333,25.5416672 48.0583339,25.0666667 47.4666667,25.0666667 L34.6666667,25.0666667 C34.0750005,25.0666667 33.6,25.5416672 33.6,26.1333333 L33.6,31.4666667 L29.3333333,31.4666667 L29.3333333,26.1333333 C29.3333333,25.5416672 28.8583339,25.0666667 28.2666667,25.0666667 L15.4666667,25.0666667 C14.8750005,25.0666667 14.4,25.5416672 14.4,26.1333333 L14.4,41.0666667 C14.4,41.6583339 14.8750005,42.1333333 15.4666667,42.1333333 L25.0666667,42.1333333 L25.0666667,46.4 L11.2,46.4 C10.6125003,46.4 10.1333333,45.9208331 10.1333333,45.3333333 L10.1333333,20.8 L41.0666667,20.8 C41.6583339,20.8 42.1333333,20.3250005 42.1333333,19.7333333 C42.1333333,19.1416672 41.6583339,18.6666667 41.0666667,18.6666667 L10.1333333,18.6666667 L10.1333333,11.2 C10.1333333,10.6125003 10.6125003,10.1333333 11.2,10.1333333 Z M12.2666667,12.2666667 C11.6750005,12.2666667 11.2,12.7416672 11.2,13.3333333 L11.2,15.4666667 C11.2,16.0583339 11.6750005,16.5333333 12.2666667,16.5333333 C12.8583339,16.5333333 13.3333333,16.0583339 13.3333333,15.4666667 L13.3333333,13.3333333 C13.3333333,12.7416672 12.8583339,12.2666667 12.2666667,12.2666667 Z M17.6,12.2666667 C17.0083339,12.2666667 16.5333333,12.7416672 16.5333333,13.3333333 L16.5333333,15.4666667 C16.5333333,16.0583339 17.0083339,16.5333333 17.6,16.5333333 C18.1916672,16.5333333 18.6666667,16.0583339 18.6666667,15.4666667 L18.6666667,13.3333333 C18.6666667,12.7416672 18.1916672,12.2666667 17.6,12.2666667 Z M22.9333333,12.2666667 C22.3416672,12.2666667 21.8666667,12.7416672 21.8666667,13.3333333 L21.8666667,15.4666667 C21.8666667,16.0583339 22.3416672,16.5333333 22.9333333,16.5333333 C23.5250005,16.5333333 24,16.0583339 24,15.4666667 L24,13.3333333 C24,12.7416672 23.5250005,12.2666667 22.9333333,12.2666667 Z M28.2666667,12.2666667 C27.6750005,12.2666667 27.2,12.7416672 27.2,13.3333333 L27.2,15.4666667 C27.2,16.0583339 27.6750005,16.5333333 28.2666667,16.5333333 C28.8583339,16.5333333 29.3333333,16.0583339 29.3333333,15.4666667 L29.3333333,13.3333333 C29.3333333,12.7416672 28.8583339,12.2666667 28.2666667,12.2666667 Z M33.6,12.2666667 C33.0083339,12.2666667 32.5333333,12.7416672 32.5333333,13.3333333 L32.5333333,15.4666667 C32.5333333,16.0583339 33.0083339,16.5333333 33.6,16.5333333 C34.1916672,16.5333333 34.6666667,16.0583339 34.6666667,15.4666667 L34.6666667,13.3333333 C34.6666667,12.7416672 34.1916672,12.2666667 33.6,12.2666667 Z M38.9333333,12.2666667 C38.3416672,12.2666667 37.8666667,12.7416672 37.8666667,13.3333333 L37.8666667,15.4666667 C37.8666667,16.0583339 38.3416672,16.5333333 38.9333333,16.5333333 C39.5250005,16.5333333 40,16.0583339 40,15.4666667 L40,13.3333333 C40,12.7416672 39.5250005,12.2666667 38.9333333,12.2666667 Z M44.2666667,12.2666667 C43.6750005,12.2666667 43.2,12.7416672 43.2,13.3333333 L43.2,15.4666667 C43.2,16.0583339 43.6750005,16.5333333 44.2666667,16.5333333 C44.8583339,16.5333333 45.3333333,16.0583339 45.3333333,15.4666667 L45.3333333,13.3333333 C45.3333333,12.7416672 44.8583339,12.2666667 44.2666667,12.2666667 Z M49.6,12.2666667 C49.0083339,12.2666667 48.5333333,12.7416672 48.5333333,13.3333333 L48.5333333,15.4666667 C48.5333333,16.0583339 49.0083339,16.5333333 49.6,16.5333333 C50.1916672,16.5333333 50.6666667,16.0583339 50.6666667,15.4666667 L50.6666667,13.3333333 C50.6666667,12.7416672 50.1916672,12.2666667 49.6,12.2666667 Z M45.3333333,18.6666667 C44.7416672,18.6666667 44.2666667,19.1416672 44.2666667,19.7333333 C44.2666667,20.3250005 44.7416672,20.8 45.3333333,20.8 L49.6,20.8 C50.1916672,20.8 50.6666667,20.3250005 50.6666667,19.7333333 C50.6666667,19.1416672 50.1916672,18.6666667 49.6,18.6666667 L45.3333333,18.6666667 Z M16.5333333,27.2 L27.2,27.2 L27.2,31.6666667 C25.9625003,32.1083339 25.0666667,33.2833333 25.0666667,34.6666667 L25.0666667,40 L16.5333333,40 L16.5333333,27.2 Z M35.7333333,27.2 L46.4,27.2 L46.4,31.4666667 L35.7333333,31.4666667 L35.7333333,27.2 Z M28.2666667,33.6 L68.8,33.6 C69.3874997,33.6 69.8666667,34.0791669 69.8666667,34.6666667 L69.8666667,68.8 C69.8666667,69.3874997 69.3874997,69.8666667 68.8,69.8666667 L28.2666667,69.8666667 C27.6791669,69.8666667 27.2,69.3874997 27.2,68.8 L27.2,44.2666667 L58.1333333,44.2666667 C58.7250005,44.2666667 59.2,43.7916672 59.2,43.2 C59.2,42.6083339 58.7250005,42.1333333 58.1333333,42.1333333 L27.2,42.1333333 L27.2,34.6666667 C27.2,34.0791669 27.6791669,33.6 28.2666667,33.6 Z M29.3333333,35.7333333 C28.7416672,35.7333333 28.2666667,36.2083339 28.2666667,36.8 L28.2666667,38.9333333 C28.2666667,39.5250005 28.7416672,40 29.3333333,40 C29.9250005,40 30.4,39.5250005 30.4,38.9333333 L30.4,36.8 C30.4,36.2083339 29.9250005,35.7333333 29.3333333,35.7333333 Z M34.6666667,35.7333333 C34.0750005,35.7333333 33.6,36.2083339 33.6,36.8 L33.6,38.9333333 C33.6,39.5250005 34.0750005,40 34.6666667,40 C35.2583339,40 35.7333333,39.5250005 35.7333333,38.9333333 L35.7333333,36.8 C35.7333333,36.2083339 35.2583339,35.7333333 34.6666667,35.7333333 Z M40,35.7333333 C39.4083339,35.7333333 38.9333333,36.2083339 38.9333333,36.8 L38.9333333,38.9333333 C38.9333333,39.5250005 39.4083339,40 40,40 C40.5916672,40 41.0666667,39.5250005 41.0666667,38.9333333 L41.0666667,36.8 C41.0666667,36.2083339 40.5916672,35.7333333 40,35.7333333 Z M45.3333333,35.7333333 C44.7416672,35.7333333 44.2666667,36.2083339 44.2666667,36.8 L44.2666667,38.9333333 C44.2666667,39.5250005 44.7416672,40 45.3333333,40 C45.9250005,40 46.4,39.5250005 46.4,38.9333333 L46.4,36.8 C46.4,36.2083339 45.9250005,35.7333333 45.3333333,35.7333333 Z M50.6666667,35.7333333 C50.0750005,35.7333333 49.6,36.2083339 49.6,36.8 L49.6,38.9333333 C49.6,39.5250005 50.0750005,40 50.6666667,40 C51.2583339,40 51.7333333,39.5250005 51.7333333,38.9333333 L51.7333333,36.8 C51.7333333,36.2083339 51.2583339,35.7333333 50.6666667,35.7333333 Z M56,35.7333333 C55.4083339,35.7333333 54.9333333,36.2083339 54.9333333,36.8 L54.9333333,38.9333333 C54.9333333,39.5250005 55.4083339,40 56,40 C56.5916672,40 57.0666667,39.5250005 57.0666667,38.9333333 L57.0666667,36.8 C57.0666667,36.2083339 56.5916672,35.7333333 56,35.7333333 Z M61.3333333,35.7333333 C60.7416672,35.7333333 60.2666667,36.2083339 60.2666667,36.8 L60.2666667,38.9333333 C60.2666667,39.5250005 60.7416672,40 61.3333333,40 C61.9250005,40 62.4,39.5250005 62.4,38.9333333 L62.4,36.8 C62.4,36.2083339 61.9250005,35.7333333 61.3333333,35.7333333 Z M66.6666667,35.7333333 C66.0750005,35.7333333 65.6,36.2083339 65.6,36.8 L65.6,38.9333333 C65.6,39.5250005 66.0750005,40 66.6666667,40 C67.2583339,40 67.7333333,39.5250005 67.7333333,38.9333333 L67.7333333,36.8 C67.7333333,36.2083339 67.2583339,35.7333333 66.6666667,35.7333333 Z M62.4,42.1333333 C61.8083339,42.1333333 61.3333333,42.6083339 61.3333333,43.2 C61.3333333,43.7916672 61.8083339,44.2666667 62.4,44.2666667 L66.6666667,44.2666667 C67.2583339,44.2666667 67.7333333,43.7916672 67.7333333,43.2 C67.7333333,42.6083339 67.2583339,42.1333333 66.6666667,42.1333333 L62.4,42.1333333 Z M32.5333333,48.5333333 C31.9416672,48.5333333 31.4666667,49.0083339 31.4666667,49.6 L31.4666667,64.5333333 C31.4666667,65.1250005 31.9416672,65.6 32.5333333,65.6 L45.3333333,65.6 C45.9250005,65.6 46.4,65.1250005 46.4,64.5333333 L46.4,49.6 C46.4,49.0083339 45.9250005,48.5333333 45.3333333,48.5333333 L32.5333333,48.5333333 Z M51.7333333,48.5333333 C51.1416672,48.5333333 50.6666667,49.0083339 50.6666667,49.6 L50.6666667,64.5333333 C50.6666667,65.1250005 51.1416672,65.6 51.7333333,65.6 L64.5333333,65.6 C65.1250005,65.6 65.6,65.1250005 65.6,64.5333333 L65.6,49.6 C65.6,49.0083339 65.1250005,48.5333333 64.5333333,48.5333333 L51.7333333,48.5333333 Z M33.6,50.6666667 L44.2666667,50.6666667 L44.2666667,63.4666667 L33.6,63.4666667 L33.6,50.6666667 Z M52.8,50.6666667 L63.4666667,50.6666667 L63.4666667,63.4666667 L52.8,63.4666667 L52.8,50.6666667 Z" id="Shape"></path>
        </g>
    </g>
</svg>